<?xml version="1.0" standalone="no"?><svg xmlns="http://www.w3.org/2000/svg" viewBox="0 0 1440 320"><path fill="#0099ff" fill-opacity="1" d="M0,64L20,106.7C40,149,80,235,120,261.3C160,288,200,256,240,224C280,192,320,160,360,160C400,160,440,192,480,213.3C520,235,560,245,600,229.3C640,213,680,171,720,170.7C760,171,800,213,840,202.7C880,192,920,128,960,122.7C1000,117,1040,171,1080,197.3C1120,224,1160,224,1200,213.3C1240,203,1280,181,1320,192C1360,203,1400,245,1420,266.7L1440,288L1440,320L1420,320C1400,320,1360,320,1320,320C1280,320,1240,320,1200,320C1160,320,1120,320,1080,320C1040,320,1000,320,960,320C920,320,880,320,840,320C800,320,760,320,720,320C680,320,640,320,600,320C560,320,520,320,480,320C440,320,400,320,360,320C320,320,280,320,240,320C200,320,160,320,120,320C80,320,40,320,20,320L0,320Z"></path></svg>