<?xml version="1.0" encoding="iso-8859-1"?>
<!-- Generator: Adobe Illustrator 19.0.0, SVG Export Plug-In . SVG Version: 6.00 Build 0)  -->
<svg version="1.1" id="Layer_1" xmlns="http://www.w3.org/2000/svg" xmlns:xlink="http://www.w3.org/1999/xlink" x="0px" y="0px"
	 viewBox="0 0 512 512" style="enable-background:new 0 0 512 512;" xml:space="preserve">
<circle style="fill:#74DBC9;" cx="256" cy="256" r="247.706"/>
<path style="fill:#6AC8B7;" d="M291.387,468.317c-136.805,0-247.706-110.902-247.706-247.706c0-59.39,20.91-113.89,55.757-156.563
	C43.814,109.472,8.294,178.583,8.294,255.998c0,136.805,110.902,247.706,247.706,247.706c77.415,0,146.526-35.52,191.949-91.144
	C405.277,447.407,350.776,468.317,291.387,468.317z"/>
<path style="fill:#EBEBEC;" d="M115.804,460.221c-27.982-19.247-51.807-44.092-69.866-72.923
	c48.794-6.781,138.273-35.648,227.756-148.993l-44.233-26.54l123.853-17.693l8.847,123.853l-35.387-35.387
	C326.773,282.538,264.577,406.874,115.804,460.221z"/>
<path style="fill:#D7D8D9;" d="M97.242,374.448c-19.826,7.105-37.255,10.896-51.306,12.849
	c18.059,28.831,41.884,53.677,69.866,72.923c19.328-6.93,37.18-15.066,53.639-23.964
	C141.561,420.455,117.047,399.408,97.242,374.448z"/>
<path d="M493.489,160.246c-1.715-4.249-6.55-6.302-10.795-4.587c-4.247,1.714-6.302,6.824-4.587,11.072
	c10.455,25.906,16.2,52.776,17.148,81.527h-62.977c-1.064-49.762-11.529-95.846-30.131-135.64
	c9.404-6.556,18.415-13.915,26.972-21.776c13.061,13.632,24.607,28.826,34.268,45.526c2.293,3.963,7.369,5.283,11.333,2.991
	c3.964-2.293,5.32-7.385,3.027-11.35c-22.106-38.213-53.894-70.27-91.93-92.691C346.627,12.217,301.737,0.002,256,0.002
	c-68.38,0-132.668,26.626-181.019,74.979S0,187.619,0,255.999s26.628,132.667,74.981,181.019S187.62,511.998,256,511.998
	s132.668-26.628,181.019-74.981S512,324.378,512,255.998C512,222.897,505.772,190.682,493.489,160.246z M196.932,429.691
	c5.925,21.653,14.156,44.208,25.237,60.22c-21.587-7.074-42.132-20.845-60.13-40.499
	C174.429,443.203,186.066,436.571,196.932,429.691z M211.525,419.996c23.478-16.314,42.952-33.454,58.505-49.13
	c13.34,0.772,26.521,2.663,39.417,5.617c-3.85,23.828-8.844,45.408-14.826,63.669c-11.333,34.601-25.77,55.26-38.62,55.26
	C243.782,495.41,225.836,475.482,211.525,419.996z M284.546,355.46c13.481-15.045,24.033-28.945,31.876-40.291
	c-1.098,15.493-2.623,30.514-4.547,44.861C302.88,358.018,293.759,356.489,284.546,355.46z M310.384,445.314
	c6.099-18.619,11.208-40.483,15.165-64.554c19.34,5.875,37.877,14.194,55.158,24.744c-22.622,42.274-54.598,72.84-91.185,84.588
	C297.209,479.127,304.218,464.141,310.384,445.314z M328.038,364.204c2.727-19.87,4.704-40.981,5.851-62.822l22.406,22.407
	c2.448,2.448,6.159,3.116,9.309,1.68c3.149-1.439,5.075-4.681,4.828-8.134l-3.794-52.839c0.345,0.044,0.693,0.351,1.051,0.351
	h47.997c-1.067,46.445-11.097,89.768-27.597,126.007C369.277,379.517,349.088,370.381,328.038,364.204z M415.686,248.257h-47.997
	c-0.766,0-1.504-0.164-2.208,0.03l-3.895-54.668c-0.164-2.296-1.274-4.49-3.065-5.934s-4.099-2.115-6.381-1.789l-19.695,2.797
	c-1.077-13.447-2.55-27.19-4.432-40.813c21.072-6.156,41.254-14.748,60.098-26.129C404.598,157.979,414.619,200.706,415.686,248.257
	z M225.193,218.877l36.082,21.649c-2.114,2.589-4.242,5.413-6.38,7.938c-0.867-0.307-1.795-0.207-2.767-0.207h-58.565
	c0.316-34.281,2.551-66.327,6.527-95.986c18.18,4.046,36.907,5.999,55.91,5.999c18.994,0,37.71-2.155,55.878-6.196
	c1.652,12.285,3.04,25.269,4.114,38.985l-87.704,12.511c-3.476,0.497-6.262,3.118-6.957,6.561
	C220.636,213.573,222.183,217.07,225.193,218.877z M195.096,308.354c-0.876-14.264-1.396-29.134-1.536-43.51h47.128
	C225.947,280.326,210.722,295.427,195.096,308.354z M96.313,248.257c1.066-47.551,11.088-90.281,27.574-126.51
	c18.861,11.389,39.065,20.396,60.156,26.552c-4.348,31.742-6.729,65.678-7.064,99.958H96.313z M16.747,264.844h62.968
	c0.761,35.387,6.425,69.357,16.862,101.274c-18.101,6.645-33.9,10.492-46.343,12.548C30.207,345.087,18.168,305.76,16.747,264.844z
	 M309.439,135.544c-17.36,3.953-35.263,6-53.439,6c-18.188,0-36.104-2.051-53.48-6.012c3.071-18.972,6.892-36.595,11.411-52.411
	C227.947,34.065,244.853,16.585,256,16.585C274.733,16.585,297.18,60.065,309.439,135.544z M289.757,21.978
	c36.502,11.809,68.401,42.352,90.977,84.561c-17.316,10.595-35.862,18.894-55.227,24.752C318.238,87.2,306.507,46.07,289.757,21.978
	z M186.532,131.299c-19.377-5.859-37.936-14.163-55.263-24.764c22.613-42.277,54.579-72.851,91.157-84.616
	C206.203,45.141,194.143,84.828,186.532,131.299z M417.224,79.115c-7.214,6.579-14.769,12.677-22.626,18.269
	c-4.001-7.352-8.289-14.436-12.88-21.199c-11.61-17.109-24.596-31.534-38.601-43.08C370.355,43.789,395.509,59.385,417.224,79.115z
	 M130.281,76.185c-4.588,6.762-8.877,13.845-12.876,21.194c-7.848-5.586-15.393-11.675-22.6-18.244
	c21.555-19.663,46.706-35.444,74.335-46.238C155.036,44.479,141.963,58.972,130.281,76.185z M82.926,91.019
	c8.543,7.845,17.537,15.192,26.926,21.736c-18.601,39.794-29.067,85.74-30.131,135.502H16.747
	C18.827,187.436,43.631,132.156,82.926,91.019z M60.011,393.338c22.246-4.356,52.453-13.407,86.404-32.12
	c4.012-2.211,5.472-7.255,3.26-11.266c-2.211-4.012-7.258-5.472-11.266-3.26c-9.13,5.033-17.959,9.593-26.407,13.253
	c-9.683-29.965-14.945-61.925-15.693-95.1h80.663c0.177,18.799,0.966,37.449,2.344,55.651c-4.444,3.315-8.915,6.375-13.416,9.434
	c-3.789,2.574-4.772,7.665-2.197,11.452c2.575,3.787,7.733,4.737,11.522,2.163c37.194-25.276,72.513-58.961,104.979-100.084
	c1.477-1.871,2.078-4.296,1.649-6.642c-0.429-2.344-1.847-4.397-3.891-5.623l-24.202-14.523l91.917-13.133l6.628,92.798
	l-19.665-19.666c-1.885-1.884-4.562-2.747-7.192-2.322c-2.631,0.427-4.897,2.092-6.09,4.476
	c-0.15,0.301-15.424,30.493-48.429,66.984c-29.958,33.123-80.798,77.931-153.819,105.085
	C94.981,435.082,75.654,415.595,60.011,393.338z M134.213,462.04c4.141-1.688,8.214-3.424,12.209-5.213
	c7.284,8.37,14.996,15.847,23.049,22.395C157.196,474.448,145.414,468.686,134.213,462.04z M381.719,435.809
	c4.583-6.752,8.864-13.825,12.86-21.163c7.869,5.587,15.43,11.657,22.622,18.209c-21.556,19.665-46.709,35.447-74.341,46.243
	C356.964,467.517,370.037,453.024,381.719,435.809z M429.077,421.525c-8.523-7.823-17.525-14.888-26.939-21.434
	c18.608-39.799,29.077-86.59,30.141-135.247h62.974C493.174,324.559,468.371,380.389,429.077,421.525z"/>
<g>
</g>
<g>
</g>
<g>
</g>
<g>
</g>
<g>
</g>
<g>
</g>
<g>
</g>
<g>
</g>
<g>
</g>
<g>
</g>
<g>
</g>
<g>
</g>
<g>
</g>
<g>
</g>
<g>
</g>
</svg>
